<?xml version="1.0" encoding="utf-8"?>
<!-- Generator: Adobe Illustrator 19.2.1, SVG Export Plug-In . SVG Version: 6.00 Build 0)  -->
<!DOCTYPE svg PUBLIC "-//W3C//DTD SVG 1.1//EN" "http://www.w3.org/Graphics/SVG/1.1/DTD/svg11.dtd">
<svg version="1.1" id="Layer_1" xmlns="http://www.w3.org/2000/svg" xmlns:xlink="http://www.w3.org/1999/xlink" x="0px" y="0px"
	 viewBox="0 0 261.5 61" enable-background="new 0 0 261.5 61" xml:space="preserve">
<g>
	<g>
		<g>
			<path fill="#FFFFFF" d="M7.4,9.3v-4h13.7v4L17.5,10v9.5H31V10l-3.5-0.7v-4H31h6.6h3.5v4L37.6,10v23.7l3.5,0.7v4H27.4v-4l3.5-0.7
				v-9.1H17.5v9.1l3.5,0.7v4H7.4v-4l3.5-0.7V10L7.4,9.3z"/>
			<path fill="#FFFFFF" d="M67.4,23.8H56.2v9.4h10.6l0.3-3.9h5v9H46.1v-4l3.5-0.7V10l-3.5-0.7v-4h3.5h22.5v9h-5.1l-0.3-3.9H56.2v8.3
				h11.2V23.8z"/>
			<path fill="#FFFFFF" d="M89.7,9.3L87,9.7l5.1,10.8h0.1l5.1-10.8l-2.7-0.4v-4h12.5v4l-2.8,0.5l-9,16.9v7l3.5,0.7v4H85.3v-4
				l3.5-0.7v-7.3L80,9.8l-2.8-0.5v-4h12.5V9.3z"/>
			<path fill="#FFFFFF" d="M155.5,9.3l-2.7,0.3l-6.7,28.7H140l-6-21.8h-0.1l-6,21.8h-6.1l-6.7-28.7l-2.7-0.3v-4h12.1v4l-3,0.5
				l3.8,18.1l0.1,0l6.2-22.6h4.9l6.2,22.6l0.1,0l3.8-18.1l-3-0.5v-4h12.1V9.3z"/>
			<path fill="#FFFFFF" d="M188,22.1c0,4.8-1.4,8.8-4.1,12c-2.8,3.2-6.4,4.7-10.9,4.7c-4.5,0-8.1-1.6-10.8-4.7
				c-2.7-3.2-4.1-7.2-4.1-12v-0.5c0-4.8,1.4-8.8,4.1-12c2.7-3.2,6.3-4.8,10.8-4.8c4.5,0,8.1,1.6,10.9,4.8c2.8,3.2,4.2,7.2,4.2,12
				V22.1z M181.4,21.5c0-3.4-0.7-6.2-2.1-8.3c-1.4-2.1-3.5-3.2-6.3-3.2c-2.8,0-4.9,1.1-6.2,3.2s-2.1,4.9-2.1,8.3v0.5
				c0,3.5,0.7,6.3,2.1,8.4c1.4,2.1,3.5,3.2,6.2,3.2c2.8,0,4.9-1.1,6.3-3.2c1.4-2.1,2.1-4.9,2.1-8.4V21.5z"/>
			<path fill="#FFFFFF" d="M222.9,22.1c0,4.8-1.4,8.8-4.1,12c-2.8,3.2-6.4,4.7-10.9,4.7c-4.5,0-8.1-1.6-10.8-4.7
				c-2.7-3.2-4.1-7.2-4.1-12v-0.5c0-4.8,1.4-8.8,4.1-12c2.7-3.2,6.3-4.8,10.8-4.8c4.5,0,8.1,1.6,10.9,4.8c2.8,3.2,4.2,7.2,4.2,12
				V22.1z M216.3,21.5c0-3.4-0.7-6.2-2.1-8.3c-1.4-2.1-3.5-3.2-6.3-3.2c-2.8,0-4.9,1.1-6.2,3.2c-1.4,2.1-2.1,4.9-2.1,8.3v0.5
				c0,3.5,0.7,6.3,2.1,8.4s3.5,3.2,6.2,3.2c2.8,0,4.9-1.1,6.3-3.2c1.4-2.1,2.1-4.9,2.1-8.4V21.5z"/>
			<path fill="#FFFFFF" d="M240.2,5.3c4,0,7.4,1.3,10,3.9c2.6,2.6,3.9,5.9,3.9,9.9v5.5c0,4-1.3,7.4-3.9,9.9c-2.6,2.6-5.9,3.8-10,3.8
				h-14.8v-4l3.5-0.7V10l-3.5-0.7v-4h3.5H240.2z M235.5,10.4v22.8h4.4c2.4,0,4.2-0.8,5.6-2.4c1.3-1.6,2-3.7,2-6.3v-5.5
				c0-2.6-0.7-4.6-2-6.2c-1.3-1.6-3.2-2.4-5.6-2.4H235.5z"/>
		</g>
		<g>
			<path fill="#FFFFFF" d="M12.5,46c1.4,0,2.5,0.5,3.4,1.3c0.1,0.1,0.1,0.3,0,0.4L15,48.6c-0.1,0.1-0.2,0.1-0.4,0
				c-0.6-0.5-1.4-0.8-2.2-0.8c-1.8,0-3.1,1.5-3.1,3.3c0,1.8,1.4,3.3,3.2,3.3c0.8,0,1.6-0.3,2.2-0.8c0.1-0.1,0.3-0.1,0.4,0l0.9,0.9
				c0.1,0.1,0.1,0.3,0,0.4c-1,0.9-2.2,1.4-3.4,1.4c-2.8,0-5.1-2.2-5.1-5.1C7.4,48.3,9.6,46,12.5,46z"/>
			<path fill="#FFFFFF" d="M25.1,46c2.8,0,5.1,2.3,5.1,5.1c0,2.8-2.3,5.1-5.1,5.1c-2.8,0-5.1-2.2-5.1-5.1C20.1,48.3,22.3,46,25.1,46
				z M25.1,54.3c1.8,0,3.2-1.5,3.2-3.2c0-1.8-1.5-3.3-3.2-3.3c-1.8,0-3.2,1.5-3.2,3.3C21.9,52.9,23.4,54.3,25.1,54.3z"/>
			<path fill="#FFFFFF" d="M36.2,46.2c0-0.1,0.1-0.2,0.3-0.2h0.2c0.1,0,0.2,0.1,0.2,0.1l3.1,6.7c0,0,0,0,0,0l3.1-6.7
				c0-0.1,0.1-0.1,0.2-0.1h0.2c0.2,0,0.2,0.1,0.3,0.2l1.7,9.5c0,0.2-0.1,0.3-0.3,0.3H44c-0.1,0-0.2-0.1-0.3-0.2l-0.8-5.3
				c0,0,0,0,0,0L40.4,56c0,0.1-0.1,0.2-0.2,0.2h-0.3c-0.1,0-0.2-0.1-0.2-0.2l-2.5-5.5c0,0,0,0,0,0l-0.8,5.3c0,0.1-0.1,0.2-0.3,0.2
				h-1.3c-0.2,0-0.3-0.1-0.3-0.3L36.2,46.2z"/>
			<path fill="#FFFFFF" d="M51.6,46.2c0-0.1,0.1-0.2,0.3-0.2h0.2c0.1,0,0.2,0.1,0.2,0.1l3.1,6.7c0,0,0,0,0,0l3.1-6.7
				c0-0.1,0.1-0.1,0.2-0.1H59c0.2,0,0.2,0.1,0.3,0.2l1.7,9.5c0,0.2-0.1,0.3-0.3,0.3h-1.3c-0.1,0-0.2-0.1-0.3-0.2l-0.8-5.3
				c0,0,0,0,0,0L55.8,56c0,0.1-0.1,0.2-0.2,0.2h-0.3c-0.1,0-0.2-0.1-0.2-0.2l-2.5-5.5c0,0,0,0,0,0l-0.8,5.3c0,0.1-0.1,0.2-0.3,0.2
				h-1.3c-0.2,0-0.3-0.1-0.3-0.3L51.6,46.2z"/>
			<path fill="#FFFFFF" d="M65.9,46.4c0-0.1,0.1-0.3,0.3-0.3h1.3c0.2,0,0.3,0.1,0.3,0.3v5.8c0,1.2,0.8,2.1,2,2.1s2.1-0.9,2.1-2.1
				v-5.8c0-0.1,0.1-0.3,0.3-0.3h1.3c0.1,0,0.3,0.1,0.3,0.3v5.9c0,2.1-1.7,3.9-3.9,3.9c-2.2,0-3.9-1.7-3.9-3.9V46.4z"/>
			<path fill="#FFFFFF" d="M79.2,46.2c0-0.1,0.1-0.3,0.3-0.3h0.4l5.9,6.2h0v-5.8c0-0.1,0.1-0.3,0.3-0.3h1.3c0.1,0,0.3,0.1,0.3,0.3
				v9.5c0,0.1-0.1,0.3-0.3,0.3H87l-5.9-6.5h0v6.1c0,0.1-0.1,0.3-0.3,0.3h-1.3c-0.1,0-0.3-0.1-0.3-0.3V46.2z"/>
			<path fill="#FFFFFF" d="M93.2,46.4c0-0.1,0.1-0.3,0.3-0.3h1.3c0.1,0,0.3,0.1,0.3,0.3v9.3c0,0.1-0.1,0.3-0.3,0.3h-1.3
				c-0.1,0-0.3-0.1-0.3-0.3V46.4z"/>
			<path fill="#FFFFFF" d="M102.1,47.8h-2.2c-0.2,0-0.3-0.1-0.3-0.3v-1.2c0-0.1,0.1-0.3,0.3-0.3h6.2c0.2,0,0.3,0.1,0.3,0.3v1.2
				c0,0.1-0.1,0.3-0.3,0.3h-2.2v7.9c0,0.1-0.1,0.3-0.3,0.3h-1.3c-0.1,0-0.3-0.1-0.3-0.3V47.8z"/>
			<path fill="#FFFFFF" d="M113.3,51.3l-3.2-4.7c-0.1-0.2,0-0.4,0.2-0.4h1.4c0.1,0,0.2,0.1,0.2,0.1l2.3,3.2l2.3-3.2
				c0-0.1,0.1-0.1,0.2-0.1h1.5c0.2,0,0.3,0.2,0.2,0.4l-3.3,4.7v4.5c0,0.1-0.1,0.3-0.3,0.3h-1.3c-0.2,0-0.3-0.1-0.3-0.3V51.3z"/>
			<path fill="#FFFFFF" d="M130,46.2c0-0.1,0.1-0.2,0.3-0.2h0.2c0.1,0,0.2,0.1,0.2,0.1l3.1,6.7c0,0,0,0,0,0l3.1-6.7
				c0-0.1,0.1-0.1,0.2-0.1h0.2c0.2,0,0.2,0.1,0.3,0.2l1.7,9.5c0,0.2-0.1,0.3-0.3,0.3h-1.3c-0.1,0-0.2-0.1-0.3-0.2l-0.8-5.3
				c0,0,0,0,0,0l-2.5,5.5c0,0.1-0.1,0.2-0.2,0.2h-0.3c-0.1,0-0.2-0.1-0.2-0.2l-2.5-5.5c0,0,0,0,0,0l-0.8,5.3c0,0.1-0.1,0.2-0.3,0.2
				h-1.3c-0.2,0-0.3-0.1-0.3-0.3L130,46.2z"/>
			<path fill="#FFFFFF" d="M143.1,55.6l4.4-9.5c0-0.1,0.1-0.2,0.2-0.2h0.1c0.1,0,0.2,0.1,0.2,0.2l4.3,9.5c0.1,0.2,0,0.4-0.2,0.4
				h-1.2c-0.2,0-0.3-0.1-0.4-0.3l-0.7-1.5h-4.2l-0.7,1.5c-0.1,0.1-0.2,0.3-0.4,0.3h-1.2C143.1,56,143,55.8,143.1,55.6z M149.2,52.6
				l-1.4-3.1h0l-1.4,3.1H149.2z"/>
			<path fill="#FFFFFF" d="M156.8,46.2c0-0.1,0.1-0.3,0.3-0.3h0.4l5.9,6.2h0v-5.8c0-0.1,0.1-0.3,0.3-0.3h1.3c0.1,0,0.3,0.1,0.3,0.3
				v9.5c0,0.1-0.1,0.3-0.3,0.3h-0.3l-5.9-6.5h0v6.1c0,0.1-0.1,0.3-0.3,0.3h-1.3c-0.1,0-0.3-0.1-0.3-0.3V46.2z"/>
			<path fill="#FFFFFF" d="M169.5,55.6l4.4-9.5c0-0.1,0.1-0.2,0.2-0.2h0.1c0.1,0,0.2,0.1,0.2,0.2l4.3,9.5c0.1,0.2,0,0.4-0.2,0.4
				h-1.2c-0.2,0-0.3-0.1-0.4-0.3l-0.7-1.5h-4.2l-0.7,1.5c-0.1,0.1-0.2,0.3-0.4,0.3h-1.2C169.6,56,169.4,55.8,169.5,55.6z
				 M175.6,52.6l-1.4-3.1h0l-1.4,3.1H175.6z"/>
			<path fill="#FFFFFF" d="M187.5,46c1.3,0,2.5,0.5,3.4,1.3c0.1,0.1,0.1,0.3,0,0.4l-0.9,0.9c-0.1,0.1-0.2,0.1-0.4,0
				c-0.6-0.5-1.4-0.8-2.1-0.8c-1.8,0-3.2,1.5-3.2,3.3c0,1.7,1.4,3.2,3.2,3.2c0.8,0,1.4-0.2,1.7-0.4v-1.2h-1.1
				c-0.2,0-0.3-0.1-0.3-0.3v-1.1c0-0.2,0.1-0.3,0.3-0.3h2.7c0.1,0,0.3,0.1,0.3,0.3V55c0,0.1-0.1,0.2-0.1,0.2c0,0-1.5,0.9-3.5,0.9
				c-2.8,0-5.1-2.2-5.1-5C182.5,48.3,184.7,46,187.5,46z"/>
			<path fill="#FFFFFF" d="M196.3,46.4c0-0.1,0.1-0.3,0.3-0.3h5.7c0.2,0,0.3,0.1,0.3,0.3v1.2c0,0.1-0.1,0.3-0.3,0.3h-4.2v2.3h3.5
				c0.1,0,0.3,0.1,0.3,0.3v1.2c0,0.2-0.1,0.3-0.3,0.3h-3.5v2.5h4.2c0.2,0,0.3,0.1,0.3,0.3v1.2c0,0.1-0.1,0.3-0.3,0.3h-5.7
				c-0.2,0-0.3-0.1-0.3-0.3V46.4z"/>
			<path fill="#FFFFFF" d="M208.8,46.2c0-0.1,0.1-0.2,0.3-0.2h0.2c0.1,0,0.2,0.1,0.2,0.1l3.1,6.7c0,0,0,0,0,0l3.1-6.7
				c0-0.1,0.1-0.1,0.2-0.1h0.2c0.2,0,0.2,0.1,0.3,0.2l1.7,9.5c0,0.2-0.1,0.3-0.3,0.3h-1.3c-0.1,0-0.2-0.1-0.3-0.2l-0.8-5.3
				c0,0,0,0,0,0L213,56c0,0.1-0.1,0.2-0.2,0.2h-0.3c-0.1,0-0.2-0.1-0.2-0.2l-2.5-5.5c0,0,0,0,0,0l-0.8,5.3c0,0.1-0.1,0.2-0.3,0.2
				h-1.3c-0.2,0-0.3-0.1-0.3-0.3L208.8,46.2z"/>
			<path fill="#FFFFFF" d="M223.1,46.4c0-0.1,0.1-0.3,0.3-0.3h5.7c0.2,0,0.3,0.1,0.3,0.3v1.2c0,0.1-0.1,0.3-0.3,0.3H225v2.3h3.5
				c0.1,0,0.3,0.1,0.3,0.3v1.2c0,0.2-0.1,0.3-0.3,0.3H225v2.5h4.2c0.2,0,0.3,0.1,0.3,0.3v1.2c0,0.1-0.1,0.3-0.3,0.3h-5.7
				c-0.2,0-0.3-0.1-0.3-0.3V46.4z"/>
			<path fill="#FFFFFF" d="M234.5,46.2c0-0.1,0.1-0.3,0.3-0.3h0.4l5.9,6.2h0v-5.8c0-0.1,0.1-0.3,0.3-0.3h1.3c0.1,0,0.3,0.1,0.3,0.3
				v9.5c0,0.1-0.1,0.3-0.3,0.3h-0.3l-5.9-6.5h0v6.1c0,0.1-0.1,0.3-0.3,0.3h-1.3c-0.1,0-0.3-0.1-0.3-0.3V46.2z"/>
			<path fill="#FFFFFF" d="M249.9,47.8h-2.2c-0.2,0-0.3-0.1-0.3-0.3v-1.2c0-0.1,0.1-0.3,0.3-0.3h6.2c0.2,0,0.3,0.1,0.3,0.3v1.2
				c0,0.1-0.1,0.3-0.3,0.3h-2.2v7.9c0,0.1-0.1,0.3-0.3,0.3h-1.3c-0.1,0-0.3-0.1-0.3-0.3V47.8z"/>
		</g>
	</g>
</g>
</svg>
